<svg width="52" height="52" viewBox="0 0 52 52" fill="none" xmlns="http://www.w3.org/2000/svg">
<rect width="52" height="52" fill="white"/>
<path d="M38 16H14C13.7348 16 13.4804 16.1054 13.2929 16.2929C13.1054 16.4804 13 16.7348 13 17V34C13 34.5304 13.2107 35.0391 13.5858 35.4142C13.9609 35.7893 14.4696 36 15 36H37C37.5304 36 38.0391 35.7893 38.4142 35.4142C38.7893 35.0391 39 34.5304 39 34V17C39 16.7348 38.8946 16.4804 38.7071 16.2929C38.5196 16.1054 38.2652 16 38 16ZM26 26.6437L16.5712 18H35.4287L26 26.6437ZM22.3387 26L15 32.7262V19.2738L22.3387 26ZM23.8188 27.3563L25.3188 28.7375C25.5032 28.9069 25.7446 29.0008 25.995 29.0008C26.2454 29.0008 26.4868 28.9069 26.6712 28.7375L28.1712 27.3563L35.4212 34H16.5712L23.8188 27.3563ZM29.6612 26L37 19.2725V32.7275L29.6612 26Z" fill="#9EA6B3"/>
</svg>
