<svg width="52" height="52" viewBox="0 0 52 52" fill="none" xmlns="http://www.w3.org/2000/svg">
<rect width="52" height="52" fill="white"/>
<path d="M37.7963 29.8072L31.9075 27.1685L31.8913 27.161C31.5856 27.0302 31.2521 26.9778 30.921 27.0083C30.5899 27.0389 30.2716 27.1515 29.995 27.336C29.9624 27.3575 29.9311 27.3809 29.9013 27.406L26.8588 29.9997C24.9313 29.0635 22.9413 27.0885 22.005 25.186L24.6025 22.0972C24.6275 22.066 24.6513 22.0347 24.6738 22.001C24.8543 21.7251 24.9638 21.4089 24.9926 21.0805C25.0214 20.752 24.9686 20.4216 24.8388 20.1185V20.1035L22.1925 14.2047C22.0209 13.8088 21.7259 13.479 21.3515 13.2645C20.9771 13.0501 20.5433 12.9624 20.115 13.0147C18.4212 13.2376 16.8665 14.0695 15.7412 15.3549C14.6159 16.6403 13.9969 18.2914 14 19.9997C14 29.9247 22.075 37.9997 32 37.9997C33.7084 38.0028 35.3595 37.3839 36.6449 36.2586C37.9303 35.1333 38.7621 33.5785 38.985 31.8847C39.0374 31.4566 38.95 31.0229 38.7357 30.6485C38.5215 30.2741 38.1919 29.979 37.7963 29.8072ZM32 35.9997C27.758 35.9951 23.691 34.3079 20.6914 31.3083C17.6918 28.3088 16.0046 24.2418 16 19.9997C15.9953 18.7791 16.4351 17.5985 17.2372 16.6784C18.0393 15.7583 19.1489 15.1616 20.3588 14.9997C20.3583 15.0047 20.3583 15.0098 20.3588 15.0147L22.9838 20.8897L20.4 23.9822C20.3738 24.0124 20.35 24.0446 20.3288 24.0785C20.1407 24.3671 20.0303 24.6995 20.0084 25.0433C19.9865 25.3872 20.0538 25.7308 20.2038 26.041C21.3363 28.3572 23.67 30.6735 26.0113 31.8047C26.3237 31.9533 26.6694 32.0183 27.0144 31.9933C27.3595 31.9683 27.6922 31.8543 27.98 31.6622C28.0121 31.6406 28.043 31.6173 28.0725 31.5922L31.1113 28.9997L36.9863 31.631C36.9863 31.631 36.9963 31.631 37 31.631C36.8402 32.8426 36.2444 33.9544 35.3241 34.7585C34.4038 35.5626 33.2221 36.0039 32 35.9997Z" fill="#9EA6B3"/>
</svg>
