<svg width="52" height="52" viewBox="0 0 52 52" fill="none" xmlns="http://www.w3.org/2000/svg">
<rect width="52" height="52" fill="white"/>
<path d="M38.6098 13.2735C38.4549 13.1397 38.2664 13.0508 38.0646 13.0162C37.8629 12.9816 37.6555 13.0027 37.4648 13.0773L12.1323 22.991C11.7733 23.1306 11.4694 23.3831 11.2662 23.7104C11.0631 24.0377 10.9718 24.4221 11.0061 24.8058C11.0403 25.1895 11.1983 25.5516 11.4562 25.8378C11.7141 26.1239 12.058 26.3185 12.4361 26.3923L18.9998 27.681V34.9998C18.9985 35.3984 19.117 35.7883 19.3399 36.1188C19.5628 36.4493 19.8798 36.7053 20.2498 36.8535C20.6193 37.0044 21.0257 37.0406 21.416 36.9575C21.8064 36.8743 22.1627 36.6756 22.4386 36.3873L25.6036 33.1048L30.6248 37.4998C30.9871 37.8211 31.4543 37.9989 31.9386 37.9998C32.1508 37.9996 32.3617 37.9663 32.5636 37.901C32.8935 37.7963 33.1903 37.607 33.4243 37.352C33.6583 37.0969 33.8214 36.785 33.8973 36.4473L38.9711 14.3748C39.0165 14.1757 39.0068 13.968 38.9432 13.774C38.8795 13.58 38.7643 13.407 38.6098 13.2735ZM30.9673 17.7735L19.7686 25.7935L13.5686 24.5773L30.9673 17.7735ZM20.9998 34.9998V29.0648L24.0986 31.7823L20.9998 34.9998ZM31.9411 35.9998L21.6061 26.9373L36.4811 16.276L31.9411 35.9998Z" fill="#9EA6B3"/>
</svg>
