<svg width="52" height="52" viewBox="0 0 52 52" fill="none" xmlns="http://www.w3.org/2000/svg">
<rect width="52" height="52" fill="white"/>
<path d="M35 38H28.8175C29.8561 37.0727 30.8355 36.0811 31.75 35.0312C35.1812 31.085 37 26.925 37 23C37 20.0826 35.8411 17.2847 33.7782 15.2218C31.7153 13.1589 28.9174 12 26 12C23.0826 12 20.2847 13.1589 18.2218 15.2218C16.1589 17.2847 15 20.0826 15 23C15 26.925 16.8138 31.085 20.25 35.0312C21.1645 36.0811 22.1439 37.0727 23.1825 38H17C16.7348 38 16.4804 38.1054 16.2929 38.2929C16.1054 38.4804 16 38.7348 16 39C16 39.2652 16.1054 39.5196 16.2929 39.7071C16.4804 39.8946 16.7348 40 17 40H35C35.2652 40 35.5196 39.8946 35.7071 39.7071C35.8946 39.5196 36 39.2652 36 39C36 38.7348 35.8946 38.4804 35.7071 38.2929C35.5196 38.1054 35.2652 38 35 38ZM17 23C17 20.6131 17.9482 18.3239 19.636 16.636C21.3239 14.9482 23.6131 14 26 14C28.3869 14 30.6761 14.9482 32.364 16.636C34.0518 18.3239 35 20.6131 35 23C35 30.1537 28.0662 36.125 26 37.75C23.9338 36.125 17 30.1537 17 23ZM31 23C31 22.0111 30.7068 21.0444 30.1573 20.2221C29.6079 19.3999 28.827 18.759 27.9134 18.3806C26.9998 18.0022 25.9945 17.9031 25.0245 18.0961C24.0546 18.289 23.1637 18.7652 22.4645 19.4645C21.7652 20.1637 21.289 21.0546 21.0961 22.0245C20.9031 22.9945 21.0022 23.9998 21.3806 24.9134C21.759 25.827 22.3999 26.6079 23.2221 27.1573C24.0444 27.7068 25.0111 28 26 28C27.3261 28 28.5979 27.4732 29.5355 26.5355C30.4732 25.5979 31 24.3261 31 23ZM23 23C23 22.4067 23.1759 21.8266 23.5056 21.3333C23.8352 20.8399 24.3038 20.4554 24.8519 20.2284C25.4001 20.0013 26.0033 19.9419 26.5853 20.0576C27.1672 20.1734 27.7018 20.4591 28.1213 20.8787C28.5409 21.2982 28.8266 21.8328 28.9424 22.4147C29.0581 22.9967 28.9987 23.5999 28.7716 24.1481C28.5446 24.6962 28.1601 25.1648 27.6667 25.4944C27.1734 25.8241 26.5933 26 26 26C25.2044 26 24.4413 25.6839 23.8787 25.1213C23.3161 24.5587 23 23.7956 23 23Z" fill="#9EA6B3"/>
</svg>
