<svg width="100" height="100" viewBox="0 0 100 100" fill="none" xmlns="http://www.w3.org/2000/svg">
<rect width="100" height="100" rx="4" fill="#E7E9EC"/>
<path d="M30.1094 74.8936C30.8699 77.2735 33.076 78.9996 35.6734 78.9996H63.3269C65.9242 78.9996 68.1304 77.2735 68.8909 74.8936H30.1094Z" fill="#6D7A8C"/>
<path d="M67.4622 34.5153L60.6599 27.7131C60.3794 27.4324 60.076 27.185 59.7529 26.9697V35.385C59.7529 35.5765 59.9092 35.7319 60.1008 35.7319H68.3971C68.1445 35.2918 67.8308 34.8839 67.4622 34.5153Z" fill="#6D7A8C"/>
<path d="M69.1745 38.8383H60.1007C58.1957 38.8383 56.6468 37.2894 56.6468 35.3855V26.0021C56.6064 26 56.565 26 56.5247 26H35.6728C32.4487 26 29.8252 28.6236 29.8252 31.8486V47.8002H69.1746L69.1745 38.8383Z" fill="#6D7A8C"/>
<path d="M49.5326 57.6396C48.5856 57.6396 48.1123 58.1718 48.1123 59.2355V63.4646C48.1123 64.5285 48.5856 65.0605 49.5326 65.0605C50.4902 65.0605 50.9689 64.5286 50.9689 63.4646V59.2355C50.9688 58.1718 50.4901 57.6396 49.5326 57.6396Z" fill="#6D7A8C"/>
<path d="M69.3766 50.9062H29.623C27.4594 50.9062 25.6992 52.6664 25.6992 54.83V67.8639C25.6992 70.0275 27.4594 71.7876 29.623 71.7876H69.3765C71.5401 71.7876 73.3004 70.0275 73.3004 67.8639V54.83C73.3004 52.6664 71.5402 50.9062 69.3766 50.9062ZM44.1704 63.3691C44.1704 64.6672 43.8138 65.6192 43.1012 66.2256C42.3883 66.832 41.4361 67.1353 40.2447 67.1353H37.4201C37.1008 67.1353 36.8401 67.061 36.6381 66.9119C36.436 66.7631 36.3348 66.5875 36.3348 66.3853V56.2197C36.3348 56.0177 36.4359 55.8422 36.6381 55.6931C36.8401 55.5443 37.1009 55.4697 37.4201 55.4697H40.2447C41.4361 55.4697 42.3884 55.773 43.1012 56.3794C43.8138 56.9858 44.1704 57.9382 44.1704 59.2359V63.3691ZM53.4583 63.4649C53.4583 64.763 53.1017 65.715 52.3891 66.3214C51.6763 66.9278 50.7239 67.2311 49.5326 67.2311C48.3516 67.2311 47.4046 66.9278 46.692 66.3214C45.9791 65.715 45.6228 64.763 45.6228 63.4649V59.2358C45.6228 57.938 45.9791 56.9857 46.692 56.3793C47.4046 55.7729 48.3516 55.4696 49.5326 55.4696C50.7239 55.4696 51.6763 55.7729 52.3891 56.3793C53.1017 56.9857 53.4583 57.9381 53.4583 59.2358V63.4649ZM58.868 65.0608C59.1658 65.0608 59.4131 65.0129 59.61 64.9172C59.8067 64.8214 59.9477 64.6754 60.0329 64.4783C60.1179 64.2816 60.1738 64.1192 60.2005 63.9916C60.2269 63.8639 60.2508 63.6883 60.2722 63.465C60.3146 62.965 60.7244 62.7149 61.501 62.7149C61.9584 62.7149 62.283 62.7974 62.4745 62.9622C62.666 63.1272 62.7616 63.4385 62.7616 63.8958C62.7616 64.9279 62.3866 65.7417 61.6365 66.3374C60.8866 66.9334 59.9262 67.2312 58.7561 67.2312C57.6175 67.2312 56.6947 66.9279 55.9873 66.3215C55.2796 65.7151 54.926 64.7631 54.926 63.465V59.2359C54.926 57.9381 55.2796 56.9858 55.9873 56.3794C56.6947 55.773 57.6175 55.4697 58.7561 55.4697C59.9262 55.4697 60.8866 55.7518 61.6365 56.3156C62.3866 56.8796 62.7616 57.6561 62.7616 58.6455C62.7616 59.103 62.6659 59.4142 62.4745 59.5791C62.283 59.7441 61.9638 59.8264 61.517 59.8264C60.7191 59.8264 60.3042 59.5766 60.2722 59.0763C60.2403 58.1188 59.7668 57.64 58.8519 57.64C57.8943 57.64 57.4156 58.1722 57.4156 59.2359V63.465C57.4158 64.5288 57.8997 65.0608 58.868 65.0608Z" fill="#6D7A8C"/>
<path d="M40.2446 57.6396H38.8242V64.9646H40.2446C41.2021 64.9646 41.6808 64.4328 41.6808 63.3687V59.2355C41.6808 58.1718 41.2021 57.6396 40.2446 57.6396Z" fill="#6D7A8C"/>
</svg>
