<svg width="100" height="100" viewBox="0 0 100 100" fill="none" xmlns="http://www.w3.org/2000/svg">
<rect width="100" height="100" rx="4" fill="#E7E9EC"/>
<path d="M40.9975 61.1124C40.7767 61.1124 40.2246 61.002 39.5621 61.002H38.5684V63.8728H39.6725C40.4454 63.8728 40.9975 63.8728 41.2184 63.7624C41.4392 63.652 41.66 63.5415 41.8809 63.3207C41.9913 63.0999 42.1017 62.879 42.1017 62.5478C42.1017 62.2165 41.9913 61.8853 41.7704 61.6645C41.5496 61.3332 41.3288 61.1124 40.9975 61.1124Z" fill="#6D7A8C"/>
<path d="M51.377 61.554C51.1562 61.3332 50.8249 61.1124 50.4937 61.1124C50.1624 61.002 49.6104 61.002 48.8374 61.002H47.9541V67.627H49.4999C50.052 67.627 50.4937 67.627 50.7145 67.5165C51.0458 67.4061 51.2666 67.2957 51.4874 67.0749C51.7083 66.854 51.9291 66.5228 52.0395 66.0811C52.1499 65.6395 52.2604 64.977 52.2604 64.204C52.2604 63.4311 52.1499 62.879 52.0395 62.4374C51.8187 62.1061 51.5979 61.8853 51.377 61.554Z" fill="#6D7A8C"/>
<path d="M61.0935 42.4518C57.5602 42.4518 54.6893 39.5809 54.6893 36.0476V26.5518H31.0602C29.6247 26.5518 28.4102 27.7663 28.4102 29.2018V75.908C28.4102 77.3434 29.6247 78.558 31.0602 78.558H68.0497C69.4852 78.558 70.6997 77.3434 70.6997 75.908V42.4518H61.0935ZM43.8685 63.983C43.6477 64.4247 43.3164 64.7559 42.9852 64.9768C42.6539 65.1976 42.3227 65.4184 41.9914 65.4184C41.5497 65.5288 40.7768 65.5288 39.8935 65.5288H38.5685V69.283H36.581V59.2351H39.7831C40.9977 59.2351 41.7706 59.2351 42.2122 59.3455C42.7643 59.4559 43.3164 59.7872 43.6477 60.3393C44.0893 60.8913 44.1997 61.4434 44.1997 62.3268C44.1997 62.9893 44.0893 63.5413 43.8685 63.983ZM53.9164 66.5226C53.6956 67.2955 53.2539 67.8476 52.8122 68.2893C52.481 68.6205 52.0393 68.9518 51.3768 69.0622C50.9352 69.1726 50.3831 69.283 49.6102 69.283H45.856V59.2351H49.4997C50.3831 59.2351 50.9352 59.3455 51.3768 59.4559C51.9289 59.6768 52.481 59.8976 52.9227 60.3393C53.3643 60.7809 53.6956 61.333 53.9164 61.9955C54.1372 62.658 54.2477 63.4309 54.2477 64.3143C54.2477 65.308 54.1372 65.9705 53.9164 66.5226ZM62.8602 61.0018H58.0018V63.3205H62.1977V64.9768H58.0018V69.283H56.0143V59.2351H62.8602V61.0018Z" fill="#6D7A8C"/>
<path d="M61.0933 38.5876H67.9391L58.5537 29.2021V36.048C58.5537 37.4834 59.6579 38.5876 61.0933 38.5876Z" fill="#6D7A8C"/>
</svg>
